<svg viewBox="0 0 83.107071 83.10759">
    <path
       d="m 75.446136,7.4326571 -1.84166,13.0793829 -13.39731,-1.88714 -0.83711,5.9419 c 6.44643,0.88889 12.88081,1.86576 19.33769,2.67656 0.90873,-6.32237 1.78968,-12.648723 2.6803,-18.9736459 z M 41.642246,0.10167416 c -22.913869,0 -41.55250144,18.63863584 -41.55250144,41.55249584 0,22.91388 18.63863244,41.55509 41.55250144,41.55509 22.91387,0 41.55457,-18.64121 41.55457,-41.55509 0,-0.25262 -0.005,-0.50394 -0.009,-0.7555 h -6.00015 c 0.005,0.25145 0.01,0.50277 0.01,0.7555 0,19.67123 -15.88371,35.55494 -35.554939,35.55494 -19.671229,0 -35.5528665,-15.88372 -35.5528665,-35.55494 -2e-6,-19.67122 15.8816375,-35.5523459 35.5528665,-35.5523459 13.657919,0 25.487549,7.6571469 31.445109,18.9218459 l 5.49538,-2.38291 C 71.670706,9.2658516 57.708116,0.10167416 41.642246,0.10167416 Z"
	   />
</svg>